<svg xmlns="http://www.w3.org/2000/svg" width="1498.785" height="264.551" viewBox="0 0 1498.785 264.551">
    <defs>
        <style>
            .a {
                fill: #1d9bf0;
            }

            .b {
                fill: #2d3748;
            }
        </style>
    </defs>
    <g transform="translate(-171.619 -1556.266)">
        <path class="a"
            d="M63.135,195.85a35.953,35.953,0,0,0,3.223,13.477q5.273,10.254,17.578,10.254,15.381,0,21.753-16.26t6.372-46q0-23.584-5.64-40.576T84.375,99.756a18.915,18.915,0,0,0-15.454,7.1q-5.786,7.1-5.786,10.181Zm0-173.584v77.783a69.458,69.458,0,0,1,13.037-10.4,46.911,46.911,0,0,1,23.73-6.3q25.342,0,40.8,19.775t15.454,48.633q0,37.207-19.7,57.349t-49,20.142a46.272,46.272,0,0,1-21.24-4.687,73.768,73.768,0,0,1-17.285-12.3L25.342,229.248H21.094V46.875q0-9.375-3.369-12.671T5.127,29.59V22.266Zm107.929,18.75a22.448,22.448,0,0,1,6.812-16.479,23.164,23.164,0,0,1,32.813,0A22.448,22.448,0,0,1,217.5,41.016,22.448,22.448,0,0,1,210.687,57.5a23.164,23.164,0,0,1-32.812,0A22.448,22.448,0,0,1,171.063,41.016ZM157.88,217.822q7.91-1.318,10.84-3.955,4.395-3.955,4.395-14.209V111.475q0-9.082-3.076-12.378T157.88,94.189V86.865h57.568V200.83q0,9.814,2.93,12.6t10.986,4.395V225H157.88Zm70.136,0q8.643-1.025,12.012-4.1t3.662-11.865l.293-8.789V111.475q0-9.375-3.223-12.744t-12.744-4.541V86.865H285v23.584a108.772,108.772,0,0,1,18.9-19.775,34.223,34.223,0,0,1,21.68-7.324A25.893,25.893,0,0,1,342.2,89.282q7.4,5.933,7.4,17.358,0,8.789-5.2,14.5a17.468,17.468,0,0,1-13.55,5.713q-9.521,0-16.479-8.936t-9.741-8.936q-6.006,0-12.085,7.4t-6.079,21.167v56.689q0,14.941,4.321,18.677T308,217.822V225h-79.98Zm189.52-5.566q9.668,0,17.358-8.643t7.69-12.158V118.506q0-3.662-6.592-10.84t-17.432-7.178q-15.967,0-21.68,22.119-3.076,11.865-3.076,33.545,0,23.145,2.93,34.863Q402.155,212.256,417.536,212.256Zm-67.969-52.148q0-35.6,16.919-56.177T407.135,83.35a38.507,38.507,0,0,1,21.094,5.859q5.713,3.516,14.355,12.6V46.875q0-11.279-4.395-13.989t-18.164-3.3V22.266h64.6V194.824q0,9.375,3.516,12.964t13.77,4.468v6.885q-25.2,2.49-32.52,3.735t-25.781,6.372V209.473q-8.5,8.789-15.527,13.037a45.575,45.575,0,0,1-24.023,6.738q-21.973,0-38.232-18.6T349.567,160.107Z"
            transform="translate(166.492 1538.541)" />
        <path class="b"
            d="M562.934,156.152q0-34.57,18.384-53.687T625.629,83.35a53.5,53.5,0,0,1,27.832,7.764,52.1,52.1,0,0,1,20.068,21.533q5.273,10.4,7.324,26.953a98.032,98.032,0,0,1,1.025,11.865H605.414q1.025,18.018,5.859,31.2,8.789,24.756,30.908,24.756A34.038,34.038,0,0,0,662.1,200.83q5.713-3.955,14.209-13.33l6.885,4.248q-13.916,22.852-32.227,31.787-11.865,5.713-27.246,5.713-22.119,0-41.455-17.432T562.934,156.152Zm82.031-15.82q-.293-26.514-4.1-37.061T625.629,92.725q-11.719,0-16.04,12.158t-4.907,35.449Zm35.419,77.49q7.91-1.9,11.206-5.054t3.3-13.11V46.875q0-9.521-3.076-12.451T680.384,29.59V22.266H737.22V199.658q0,9.961,3.223,13.037t11.426,5.127V225H680.384Zm71.454-61.67q0-34.57,18.384-53.687T814.533,83.35a53.5,53.5,0,0,1,27.832,7.764,52.1,52.1,0,0,1,20.068,21.533q5.273,10.4,7.324,26.953a98.032,98.032,0,0,1,1.025,11.865H794.318q1.025,18.018,5.859,31.2,8.789,24.756,30.908,24.756a34.038,34.038,0,0,0,19.922-6.592q5.713-3.955,14.209-13.33l6.885,4.248q-13.916,22.852-32.227,31.787-11.865,5.713-27.246,5.713-22.119,0-41.455-17.432T751.838,156.152Zm82.031-15.82q-.293-26.514-4.1-37.061T814.533,92.725q-11.719,0-16.04,12.158t-4.907,35.449ZM952.2,212.549q16.26,0,21.973-21.533,3.076-11.865,3.076-34.131,0-25.781-4.687-41.089t-19.043-15.308q-9.668,0-17.285,8.5t-7.617,12.3v72.949q0,4.395,7.251,11.353T952.2,212.549Zm-82.324,67.09q9.668-1.025,13.184-4.468t3.516-12.964V111.475q0-9.375-3.3-12.671t-12.671-4.614V86.865h57.275v19.775q6.152-10.254,12.012-15.088,10.547-8.5,26.953-8.5,23.584,0,39.185,17.725t15.6,52.881q0,32.666-16.772,54.126t-40.8,21.46a41.872,41.872,0,0,1-23.291-7.178,62.689,62.689,0,0,1-12.158-10.84v25.342q.146,20.215.293,22.705,1.025,11.865,6.079,16.26t16.919,5.127v6.152H869.873Zm152.46-61.816q8.2-1.025,12.085-4.468t3.882-13.7V46.875q0-8.936-3.223-12.524t-12.744-4.761V22.266h58.008v84.375a76.607,76.607,0,0,1,19.409-17.212,43.851,43.851,0,0,1,22.925-6.079q17.285,0,28.564,10.034t11.279,34.2v72.07q0,10.107,3.442,13.257t11.5,4.907V225H1107v-7.178q8.057-1.611,10.986-4.395t2.93-12.6V128.174q0-10.254-2.051-15.381-3.516-9.229-13.916-9.229-7.764,0-16.04,7.178t-8.276,9.814V200.83q0,9.814,2.93,12.6t10.986,4.395V225h-72.217Zm213.983-9.961a23.34,23.34,0,0,0,13.623-4.395,57.945,57.945,0,0,0,8.35-8.2v-43.8a62.687,62.687,0,0,0-21.094,9.229q-15.381,10.693-15.381,27.246,0,9.814,4.468,14.868T1236.316,207.861Zm-58.154-10.84q0-20.215,19.482-32.08t61.084-23.877V119.238q0-13.33-5.64-19.7t-20-6.372q-8.057,0-13.257,3t-5.2,7.544a6.522,6.522,0,0,0,.586,2.93,11.768,11.768,0,0,0,1.758,2.49l1.758,2.051a21.613,21.613,0,0,1,3.3,5.493,16.47,16.47,0,0,1,1.245,6.372q0,8.5-5.64,13.11a20.09,20.09,0,0,1-13.11,4.614,22.073,22.073,0,0,1-14.722-5.127q-6.079-5.127-6.079-14.795,0-17.285,16.26-27.393t39.99-10.107q25.488,0,42.627,9.814,16.992,9.961,16.992,36.621v72.656a8.96,8.96,0,0,0,1.685,5.493,4.712,4.712,0,0,0,3.735,2.271,7.269,7.269,0,0,0,3.149-.659,19.622,19.622,0,0,0,4.321-3.589l4.541,6.3q-8.789,10.254-19.482,14.355a38.643,38.643,0,0,1-14.209,2.637q-13.33,0-19.482-7.764-3.516-4.395-5.127-13.037a70.424,70.424,0,0,1-28.125,17.578,58.248,58.248,0,0,1-18.75,3.223,38.162,38.162,0,0,1-23-7.837Q1178.162,213.574,1178.162,197.021Zm133.417,20.8q8.2-1.025,12.085-4.468t3.882-13.7V111.475q0-9.082-3.149-12.6t-12.817-4.687V86.865h56.836V108.4a61.451,61.451,0,0,1,18.237-17.944,44.456,44.456,0,0,1,24.536-7.1q19.336,0,29.956,9.961t10.62,35.01v72.51q0,10.107,3.442,13.037t11.5,3.955V225h-70.459v-7.178q8.057-1.611,10.986-4.395t2.93-12.6V128.174q0-10.254-2.051-15.381-3.516-9.229-13.916-9.229a21.369,21.369,0,0,0-14.282,5.64,50.024,50.024,0,0,0-10.034,11.353V200.83q0,9.814,2.93,12.6t10.986,4.395V225h-72.217Zm153.046-117.773V91.7q3.955-3.662,9.814-8.643,7.764-7.178,14.648-14.795a248.158,248.158,0,0,0,24.756-32.08h7.617V86.865h28.564v13.184h-28.564v90.234a25.783,25.783,0,0,0,1.9,10.547q2.93,6.592,9.668,6.592a12.972,12.972,0,0,0,9.814-4.175,54.323,54.323,0,0,0,7.91-11.5l7.178,3.516a67.917,67.917,0,0,1-12.6,20.068,41.7,41.7,0,0,1-31.494,13.623A40.776,40.776,0,0,1,1495.386,225q-15.234-7.617-15.234-27.686V100.049Z"
            transform="translate(112.469 1534)" />
    </g>
</svg>
